<svg width="80" height="80" viewBox="0 0 80 80" fill="none" xmlns="http://www.w3.org/2000/svg">
<path d="M0 40C0 17.9086 17.9086 0 40 0C62.0914 0 80 17.9086 80 40C80 62.0914 62.0914 80 40 80C17.9086 80 0 62.0914 0 40Z" fill="#E8DDD0"/>
<path d="M40 45.0002C46.2132 45.0002 51.25 40.1499 51.25 34.1668C51.25 28.1837 46.2132 23.3335 40 23.3335C33.7868 23.3335 28.75 28.1837 28.75 34.1668C28.75 40.1499 33.7868 45.0002 40 45.0002Z" stroke="#5B7B5A" stroke-width="3" stroke-linecap="round" stroke-linejoin="round"/>
<path d="M32.5332 42.5334L32.5166 54.8334C32.5166 56.3334 33.5666 57.0667 34.8666 56.4501L39.3333 54.3334C39.6999 54.1501 40.3166 54.1501 40.6833 54.3334L45.1666 56.4501C46.4499 57.0501 47.5166 56.3334 47.5166 54.8334V42.2334" stroke="#5B7B5A" stroke-width="3" stroke-linecap="round" stroke-linejoin="round"/>
</svg>
