<svg width="64" height="64" viewBox="0 0 64 64" fill="none" xmlns="http://www.w3.org/2000/svg">
<path d="M0 32C0 14.3269 14.3269 0 32 0C49.6731 0 64 14.3269 64 32C64 49.6731 49.6731 64 32 64C14.3269 64 0 49.6731 0 32Z" fill="#E8DDD0"/>
<path d="M30.6892 19.7521C30.7463 19.4462 30.9086 19.17 31.148 18.9712C31.3874 18.7724 31.6887 18.6636 31.9999 18.6636C32.311 18.6636 32.6124 18.7724 32.8517 18.9712C33.0911 19.17 33.2534 19.4462 33.3105 19.7521L34.7119 27.1628C34.8114 27.6896 35.0674 28.1743 35.4466 28.5534C35.8257 28.9325 36.3103 29.1886 36.8372 29.2881L44.2479 30.6894C44.5537 30.7466 44.83 30.9089 45.0288 31.1482C45.2276 31.3876 45.3364 31.6889 45.3364 32.0001C45.3364 32.3113 45.2276 32.6126 45.0288 32.852C44.83 33.0913 44.5537 33.2536 44.2479 33.3108L36.8372 34.7121C36.3103 34.8116 35.8257 35.0677 35.4466 35.4468C35.0674 35.8259 34.8114 36.3106 34.7119 36.8374L33.3105 44.2481C33.2534 44.554 33.0911 44.8302 32.8517 45.029C32.6124 45.2278 32.311 45.3366 31.9999 45.3366C31.6887 45.3366 31.3874 45.2278 31.148 45.029C30.9086 44.8302 30.7463 44.554 30.6892 44.2481L29.2879 36.8374C29.1883 36.3106 28.9323 35.8259 28.5532 35.4468C28.174 35.0677 27.6894 34.8116 27.1625 34.7121L19.7519 33.3108C19.446 33.2536 19.1697 33.0913 18.9709 32.852C18.7722 32.6126 18.6633 32.3113 18.6633 32.0001C18.6633 31.6889 18.7722 31.3876 18.9709 31.1482C19.1697 30.9089 19.446 30.7466 19.7519 30.6894L27.1625 29.2881C27.6894 29.1886 28.174 28.9325 28.5532 28.5534C28.9323 28.1743 29.1883 27.6896 29.2879 27.1628L30.6892 19.7521Z" stroke="#5B7B5A" stroke-width="3" stroke-linecap="round" stroke-linejoin="round"/>
<path d="M42.6665 18.667V24.0003" stroke="#5B7B5A" stroke-width="3" stroke-linecap="round" stroke-linejoin="round"/>
<path d="M45.3333 21.3335H40" stroke="#5B7B5A" stroke-width="3" stroke-linecap="round" stroke-linejoin="round"/>
<path d="M21.3332 45.3333C22.8059 45.3333 23.9998 44.1394 23.9998 42.6667C23.9998 41.1939 22.8059 40 21.3332 40C19.8604 40 18.6665 41.1939 18.6665 42.6667C18.6665 44.1394 19.8604 45.3333 21.3332 45.3333Z" stroke="#5B7B5A" stroke-width="3" stroke-linecap="round" stroke-linejoin="round"/>
</svg>
