<svg width="64" height="64" viewBox="0 0 64 64" fill="none" xmlns="http://www.w3.org/2000/svg">
<path d="M0 32C0 14.3269 14.3269 0 32 0C49.6731 0 64 14.3269 64 32C64 49.6731 49.6731 64 32 64C14.3269 64 0 49.6731 0 32Z" fill="#E8DDD0"/>
<path d="M38.6668 44C39.0204 44 39.3595 43.8596 39.6096 43.6095C39.8596 43.3595 40.0001 43.0203 40.0001 42.6667V35.5334C40.0001 34.924 40.4214 34.408 40.9694 34.1454C42.1041 33.6041 43.011 32.6794 43.5303 31.5346C44.0495 30.3897 44.1476 29.0982 43.8073 27.888C43.467 26.6778 42.7102 25.6267 41.6704 24.9202C40.6305 24.2138 39.3746 23.8973 38.1241 24.0267C37.6091 22.8296 36.7546 21.8098 35.6662 21.0932C34.5778 20.3765 33.3032 19.9946 32.0001 19.9946C30.697 19.9946 29.4224 20.3765 28.334 21.0932C27.2456 21.8098 26.3911 22.8296 25.8761 24.0267C24.6262 23.8982 23.3711 24.2151 22.332 24.9216C21.2929 25.628 20.5367 26.6786 20.1965 27.8882C19.8563 29.0977 19.9541 30.3885 20.4726 31.533C20.9912 32.6775 21.8971 33.6022 23.0308 34.144C23.5788 34.408 24.0001 34.924 24.0001 35.532V42.6667C24.0001 43.0203 24.1406 43.3595 24.3906 43.6095C24.6407 43.8596 24.9798 44 25.3334 44H38.6668Z" stroke="#5B7B5A" stroke-width="3" stroke-linecap="round" stroke-linejoin="round"/>
<path d="M24 38.6665H40" stroke="#5B7B5A" stroke-width="3" stroke-linecap="round" stroke-linejoin="round"/>
</svg>
