<svg width="48" height="48" viewBox="0 0 48 48" fill="none" xmlns="http://www.w3.org/2000/svg">
<path d="M0 12C0 5.37258 5.37258 0 12 0H36C42.6274 0 48 5.37258 48 12V36C48 42.6274 42.6274 48 36 48H12C5.37258 48 0 42.6274 0 36V12Z" fill="#5B7B5A"/>
<path d="M20.6719 26.3298C20.6719 27.6198 21.6619 28.6598 22.8919 28.6598H25.4019C26.4719 28.6598 27.3419 27.7498 27.3419 26.6298C27.3419 25.4098 26.8119 24.9798 26.0219 24.6998L21.9919 23.2998C21.2019 23.0198 20.6719 22.5898 20.6719 21.3698C20.6719 20.2498 21.5419 19.3398 22.6119 19.3398H25.1219C26.3519 19.3398 27.3419 20.3798 27.3419 21.6698" stroke="white" stroke-width="1.5" stroke-linecap="round" stroke-linejoin="round"/>
<path d="M24 18V30" stroke="white" stroke-width="1.5" stroke-linecap="round" stroke-linejoin="round"/>
<path d="M27 34H21C16 34 14 32 14 27V21C14 16 16 14 21 14H27C32 14 34 16 34 21V27C34 32 32 34 27 34Z" stroke="white" stroke-width="1.5" stroke-linecap="round" stroke-linejoin="round"/>
</svg>
