<svg width="96" height="96" viewBox="0 0 96 96" fill="none" xmlns="http://www.w3.org/2000/svg">
<path d="M48 0.5C74.2335 0.5 95.5 21.7665 95.5 48C95.5 74.2335 74.2335 95.5 48 95.5C21.7665 95.5 0.5 74.2335 0.5 48C0.5 21.7665 21.7665 0.5 48 0.5Z" stroke="#675F57"/>
<mask id="path-2-inside-1_141_65" fill="white">
<path d="M33 31.75C33 31.4185 33.1317 31.1005 33.3661 30.8661C33.6005 30.6317 33.9185 30.5 34.25 30.5H61.75C62.0815 30.5 62.3995 30.6317 62.6339 30.8661C62.8683 31.1005 63 31.4185 63 31.75C63 32.0815 62.8683 32.3995 62.6339 32.6339C62.3995 32.8683 62.0815 33 61.75 33H59.25V35.5C59.2505 37.6226 58.6505 39.702 57.5194 41.4981C56.3882 43.2941 54.772 44.7335 52.8575 45.65C52.1325 45.9975 51.75 46.5925 51.75 47.125V48.875C51.75 49.4075 52.135 50.0025 52.8575 50.35C54.772 51.2665 56.3882 52.7059 57.5194 54.5019C58.6505 56.298 59.2505 58.3774 59.25 60.5V63H61.75C62.0815 63 62.3995 63.1317 62.6339 63.3661C62.8683 63.6005 63 63.9185 63 64.25C63 64.5815 62.8683 64.8995 62.6339 65.1339C62.3995 65.3683 62.0815 65.5 61.75 65.5H34.25C33.9185 65.5 33.6005 65.3683 33.3661 65.1339C33.1317 64.8995 33 64.5815 33 64.25C33 63.9185 33.1317 63.6005 33.3661 63.3661C33.6005 63.1317 33.9185 63 34.25 63H36.75V60.5C36.7495 58.3774 37.3495 56.298 38.4806 54.5019C39.6118 52.7059 41.228 51.2665 43.1425 50.35C43.8675 50.0025 44.25 49.4075 44.25 48.875V47.125C44.25 46.5925 43.865 45.9975 43.1425 45.65C41.228 44.7335 39.6118 43.2941 38.4806 41.4981C37.3495 39.702 36.7495 37.6226 36.75 35.5V33H34.25C33.9185 33 33.6005 32.8683 33.3661 32.6339C33.1317 32.3995 33 32.0815 33 31.75ZM39.25 33V35.5C39.2495 37.151 39.7162 38.7685 40.5961 40.1656C41.476 41.5626 42.7332 42.6822 44.2225 43.395C45.555 44.035 46.75 45.3725 46.75 47.1225V48.8775C46.75 50.6275 45.555 51.965 44.2225 52.605C42.7332 53.3178 41.476 54.4374 40.5961 55.8344C39.7162 57.2315 39.2495 58.849 39.25 60.5V63H56.75V60.5C56.7505 58.849 56.2838 57.2315 55.4039 55.8344C54.524 54.4374 53.2668 53.3178 51.7775 52.605C50.445 51.965 49.25 50.63 49.25 48.8775V47.1225C49.25 45.3725 50.445 44.035 51.7775 43.395C53.2668 42.6822 54.524 41.5626 55.4039 40.1656C56.2838 38.7685 56.7505 37.151 56.75 35.5V33H39.25Z"/>
</mask>
<path d="M33 31.75C33 31.4185 33.1317 31.1005 33.3661 30.8661C33.6005 30.6317 33.9185 30.5 34.25 30.5H61.75C62.0815 30.5 62.3995 30.6317 62.6339 30.8661C62.8683 31.1005 63 31.4185 63 31.75C63 32.0815 62.8683 32.3995 62.6339 32.6339C62.3995 32.8683 62.0815 33 61.75 33H59.25V35.5C59.2505 37.6226 58.6505 39.702 57.5194 41.4981C56.3882 43.2941 54.772 44.7335 52.8575 45.65C52.1325 45.9975 51.75 46.5925 51.75 47.125V48.875C51.75 49.4075 52.135 50.0025 52.8575 50.35C54.772 51.2665 56.3882 52.7059 57.5194 54.5019C58.6505 56.298 59.2505 58.3774 59.25 60.5V63H61.75C62.0815 63 62.3995 63.1317 62.6339 63.3661C62.8683 63.6005 63 63.9185 63 64.25C63 64.5815 62.8683 64.8995 62.6339 65.1339C62.3995 65.3683 62.0815 65.5 61.75 65.5H34.25C33.9185 65.5 33.6005 65.3683 33.3661 65.1339C33.1317 64.8995 33 64.5815 33 64.25C33 63.9185 33.1317 63.6005 33.3661 63.3661C33.6005 63.1317 33.9185 63 34.25 63H36.75V60.5C36.7495 58.3774 37.3495 56.298 38.4806 54.5019C39.6118 52.7059 41.228 51.2665 43.1425 50.35C43.8675 50.0025 44.25 49.4075 44.25 48.875V47.125C44.25 46.5925 43.865 45.9975 43.1425 45.65C41.228 44.7335 39.6118 43.2941 38.4806 41.4981C37.3495 39.702 36.7495 37.6226 36.75 35.5V33H34.25C33.9185 33 33.6005 32.8683 33.3661 32.6339C33.1317 32.3995 33 32.0815 33 31.75ZM39.25 33V35.5C39.2495 37.151 39.7162 38.7685 40.5961 40.1656C41.476 41.5626 42.7332 42.6822 44.2225 43.395C45.555 44.035 46.75 45.3725 46.75 47.1225V48.8775C46.75 50.6275 45.555 51.965 44.2225 52.605C42.7332 53.3178 41.476 54.4374 40.5961 55.8344C39.7162 57.2315 39.2495 58.849 39.25 60.5V63H56.75V60.5C56.7505 58.849 56.2838 57.2315 55.4039 55.8344C54.524 54.4374 53.2668 53.3178 51.7775 52.605C50.445 51.965 49.25 50.63 49.25 48.8775V47.1225C49.25 45.3725 50.445 44.035 51.7775 43.395C53.2668 42.6822 54.524 41.5626 55.4039 40.1656C56.2838 38.7685 56.7505 37.151 56.75 35.5V33H39.25Z" fill="#2D2D2D"/>
<path d="M34.25 30.5V27.5V30.5ZM61.75 30.5V27.5V30.5ZM61.75 33V36V33ZM59.25 33V30H56.25V33H59.25ZM59.25 35.5H56.25V35.5007L59.25 35.5ZM52.8575 45.65L51.5622 42.9441L51.5608 42.9447L52.8575 45.65ZM52.8575 50.35L51.5572 53.0536L51.5622 53.0559L52.8575 50.35ZM59.25 60.5L56.25 60.4993V60.5H59.25ZM59.25 63H56.25V66H59.25V63ZM36.75 63V66H39.75V63H36.75ZM36.75 60.5H39.75V60.4993L36.75 60.5ZM43.1425 50.35L44.4378 53.0559L44.4392 53.0553L43.1425 50.35ZM43.1425 45.65L44.4428 42.9464L44.4378 42.9441L43.1425 45.65ZM36.75 35.5L39.75 35.5007V35.5H36.75ZM36.75 33H39.75V30H36.75V33ZM34.25 33V36V33ZM39.25 33V30H36.25V33H39.25ZM39.25 35.5L42.25 35.5008V35.5H39.25ZM44.2225 43.395L45.5214 40.6907L45.5176 40.689L44.2225 43.395ZM44.2225 52.605L45.5176 55.311L45.5214 55.3093L44.2225 52.605ZM39.25 60.5H42.25V60.4992L39.25 60.5ZM39.25 63H36.25V66H39.25V63ZM56.75 63V66H59.75V63H56.75ZM56.75 60.5L53.75 60.4992V60.5H56.75ZM51.7775 52.605L50.4786 55.3093L50.4824 55.311L51.7775 52.605ZM51.7775 43.395L50.4824 40.689L50.4786 40.6907L51.7775 43.395ZM56.75 35.5H53.75V35.5008L56.75 35.5ZM56.75 33H59.75V30H56.75V33ZM33 31.75H36C36 32.2141 35.8156 32.6592 35.4874 32.9874L33.3661 30.8661L31.2448 28.7448C30.4478 29.5418 30 30.6228 30 31.75H33ZM33.3661 30.8661L35.4874 32.9874C35.1592 33.3156 34.7141 33.5 34.25 33.5V30.5V27.5C33.1228 27.5 32.0418 27.9478 31.2448 28.7448L33.3661 30.8661ZM34.25 30.5V33.5H61.75V30.5V27.5H34.25V30.5ZM61.75 30.5V33.5C61.2859 33.5 60.8408 33.3156 60.5126 32.9874L62.6339 30.8661L64.7552 28.7448C63.9582 27.9478 62.8772 27.5 61.75 27.5V30.5ZM62.6339 30.8661L60.5126 32.9874C60.1844 32.6592 60 32.2141 60 31.75H63H66C66 30.6228 65.5522 29.5418 64.7552 28.7448L62.6339 30.8661ZM63 31.75H60C60 31.2859 60.1844 30.8408 60.5126 30.5126L62.6339 32.6339L64.7552 34.7552C65.5522 33.9582 66 32.8772 66 31.75H63ZM62.6339 32.6339L60.5126 30.5126C60.8408 30.1844 61.2859 30 61.75 30V33V36C62.8772 36 63.9582 35.5522 64.7552 34.7552L62.6339 32.6339ZM61.75 33V30H59.25V33V36H61.75V33ZM59.25 33H56.25V35.5H59.25H62.25V33H59.25ZM59.25 35.5L56.25 35.5007C56.2504 37.0573 55.8104 38.5822 54.9809 39.8993L57.5194 41.4981L60.0579 43.0968C61.4907 40.8218 62.2507 38.1879 62.25 35.4993L59.25 35.5ZM57.5194 41.4981L54.9809 39.8993C54.1514 41.2164 52.9662 42.272 51.5622 42.9441L52.8575 45.65L54.1528 48.3559C56.5779 47.1951 58.6251 45.3718 60.0579 43.0968L57.5194 41.4981ZM52.8575 45.65L51.5608 42.9447C50.0719 43.6584 48.75 45.1598 48.75 47.125H51.75H54.75C54.75 47.5763 54.5926 47.8959 54.4667 48.0707C54.3351 48.2536 54.2058 48.3305 54.1542 48.3553L52.8575 45.65ZM51.75 47.125H48.75V48.875H51.75H54.75V47.125H51.75ZM51.75 48.875H48.75C48.75 50.8449 50.0793 52.3427 51.5572 53.0535L52.8575 50.35L54.1578 47.6465C54.2091 47.6711 54.3362 47.747 54.4662 47.9273C54.5903 48.0994 54.75 48.4194 54.75 48.875H51.75ZM52.8575 50.35L51.5622 53.0559C52.9662 53.728 54.1514 54.7836 54.9809 56.1007L57.5194 54.5019L60.0579 52.9032C58.6251 50.6282 56.5779 48.8049 54.1528 47.6441L52.8575 50.35ZM57.5194 54.5019L54.9809 56.1007C55.8104 57.4178 56.2504 58.9427 56.25 60.4993L59.25 60.5L62.25 60.5007C62.2507 57.8121 61.4907 55.1782 60.0579 52.9032L57.5194 54.5019ZM59.25 60.5H56.25V63H59.25H62.25V60.5H59.25ZM59.25 63V66H61.75V63V60H59.25V63ZM61.75 63V66C61.2859 66 60.8408 65.8156 60.5126 65.4874L62.6339 63.3661L64.7552 61.2448C63.9582 60.4478 62.8772 60 61.75 60V63ZM62.6339 63.3661L60.5126 65.4874C60.1844 65.1592 60 64.7141 60 64.25H63H66C66 63.1228 65.5522 62.0418 64.7552 61.2448L62.6339 63.3661ZM63 64.25H60C60 63.7859 60.1844 63.3408 60.5126 63.0126L62.6339 65.1339L64.7552 67.2552C65.5522 66.4582 66 65.3772 66 64.25H63ZM62.6339 65.1339L60.5126 63.0126C60.8408 62.6844 61.2859 62.5 61.75 62.5V65.5V68.5C62.8772 68.5 63.9582 68.0522 64.7552 67.2552L62.6339 65.1339ZM61.75 65.5V62.5H34.25V65.5V68.5H61.75V65.5ZM34.25 65.5V62.5C34.7141 62.5 35.1592 62.6844 35.4874 63.0126L33.3661 65.1339L31.2448 67.2552C32.0418 68.0522 33.1228 68.5 34.25 68.5V65.5ZM33.3661 65.1339L35.4874 63.0126C35.8156 63.3408 36 63.7859 36 64.25H33H30C30 65.3772 30.4478 66.4582 31.2448 67.2552L33.3661 65.1339ZM33 64.25H36C36 64.7141 35.8156 65.1592 35.4874 65.4874L33.3661 63.3661L31.2448 61.2448C30.4478 62.0418 30 63.1228 30 64.25H33ZM33.3661 63.3661L35.4874 65.4874C35.1592 65.8156 34.7141 66 34.25 66V63V60C33.1228 60 32.0418 60.4478 31.2448 61.2448L33.3661 63.3661ZM34.25 63V66H36.75V63V60H34.25V63ZM36.75 63H39.75V60.5H36.75H33.75V63H36.75ZM36.75 60.5L39.75 60.4993C39.7496 58.9427 40.1896 57.4178 41.0191 56.1007L38.4806 54.5019L35.9421 52.9032C34.5093 55.1782 33.7493 57.8121 33.75 60.5007L36.75 60.5ZM38.4806 54.5019L41.0191 56.1007C41.8486 54.7836 43.0338 53.728 44.4378 53.0559L43.1425 50.35L41.8472 47.6441C39.4221 48.8049 37.3749 50.6282 35.9421 52.9032L38.4806 54.5019ZM43.1425 50.35L44.4392 53.0553C45.9281 52.3416 47.25 50.8402 47.25 48.875H44.25H41.25C41.25 48.4237 41.4074 48.1041 41.5333 47.9293C41.6649 47.7464 41.7942 47.6695 41.8458 47.6447L43.1425 50.35ZM44.25 48.875H47.25V47.125H44.25H41.25V48.875H44.25ZM44.25 47.125H47.25C47.25 45.1551 45.9207 43.6573 44.4428 42.9465L43.1425 45.65L41.8422 48.3535C41.7909 48.3289 41.6638 48.253 41.5338 48.0727C41.4097 47.9006 41.25 47.5806 41.25 47.125H44.25ZM43.1425 45.65L44.4378 42.9441C43.0338 42.272 41.8486 41.2164 41.0191 39.8993L38.4806 41.4981L35.9421 43.0968C37.3749 45.3718 39.4221 47.1951 41.8472 48.3559L43.1425 45.65ZM38.4806 41.4981L41.0191 39.8993C40.1896 38.5822 39.7496 37.0573 39.75 35.5007L36.75 35.5L33.75 35.4993C33.7493 38.1879 34.5093 40.8218 35.9421 43.0968L38.4806 41.4981ZM36.75 35.5H39.75V33H36.75H33.75V35.5H36.75ZM36.75 33V30H34.25V33V36H36.75V33ZM34.25 33V30C34.7141 30 35.1592 30.1844 35.4874 30.5126L33.3661 32.6339L31.2448 34.7552C32.0418 35.5522 33.1228 36 34.25 36V33ZM33.3661 32.6339L35.4874 30.5126C35.8156 30.8408 36 31.2859 36 31.75H33H30C30 32.8772 30.4478 33.9582 31.2448 34.7552L33.3661 32.6339ZM39.25 33H36.25V35.5H39.25H42.25V33H39.25ZM39.25 35.5L36.25 35.4992C36.2494 37.7163 36.8761 39.8884 38.0577 41.7644L40.5961 40.1656L43.1346 38.5668C42.5564 37.6487 42.2497 36.5858 42.25 35.5008L39.25 35.5ZM40.5961 40.1656L38.0577 41.7644C39.2392 43.6404 40.9275 45.1439 42.9274 46.101L44.2225 43.395L45.5176 40.689C44.539 40.2206 43.7128 39.4848 43.1346 38.5668L40.5961 40.1656ZM44.2225 43.395L42.9236 46.0993C43.189 46.2267 43.4211 46.4184 43.5686 46.6191C43.7021 46.8007 43.75 46.9612 43.75 47.1225H46.75H49.75C49.75 43.8973 47.5683 41.6739 45.5214 40.6907L44.2225 43.395ZM46.75 47.1225H43.75V48.8775H46.75H49.75V47.1225H46.75ZM46.75 48.8775H43.75C43.75 49.0388 43.7021 49.1993 43.5686 49.3809C43.4211 49.5816 43.189 49.7733 42.9236 49.9007L44.2225 52.605L45.5214 55.3093C47.5683 54.3261 49.75 52.1027 49.75 48.8775H46.75ZM44.2225 52.605L42.9274 49.899C40.9275 50.8561 39.2392 52.3596 38.0577 54.2356L40.5961 55.8344L43.1346 57.4332C43.7128 56.5152 44.539 55.7794 45.5176 55.311L44.2225 52.605ZM40.5961 55.8344L38.0577 54.2356C36.8761 56.1116 36.2494 58.2837 36.25 60.5008L39.25 60.5L42.25 60.4992C42.2497 59.4142 42.5564 58.3513 43.1346 57.4332L40.5961 55.8344ZM39.25 60.5H36.25V63H39.25H42.25V60.5H39.25ZM39.25 63V66H56.75V63V60H39.25V63ZM56.75 63H59.75V60.5H56.75H53.75V63H56.75ZM56.75 60.5L59.75 60.5008C59.7506 58.2837 59.1239 56.1116 57.9423 54.2356L55.4039 55.8344L52.8654 57.4332C53.4436 58.3513 53.7503 59.4142 53.75 60.4992L56.75 60.5ZM55.4039 55.8344L57.9423 54.2356C56.7608 52.3596 55.0725 50.8561 53.0726 49.899L51.7775 52.605L50.4824 55.311C51.461 55.7794 52.2872 56.5152 52.8654 57.4332L55.4039 55.8344ZM51.7775 52.605L53.0764 49.9007C52.8097 49.7727 52.5779 49.581 52.431 49.3812C52.2983 49.2008 52.25 49.0407 52.25 48.8775H49.25H46.25C46.25 52.1061 48.4328 54.3266 50.4786 55.3093L51.7775 52.605ZM49.25 48.8775H52.25V47.1225H49.25H46.25V48.8775H49.25ZM49.25 47.1225H52.25C52.25 46.9612 52.2979 46.8007 52.4314 46.6191C52.5789 46.4184 52.811 46.2267 53.0764 46.0993L51.7775 43.395L50.4786 40.6907C48.4317 41.6739 46.25 43.8973 46.25 47.1225H49.25ZM51.7775 43.395L53.0726 46.101C55.0725 45.1439 56.7608 43.6404 57.9423 41.7644L55.4039 40.1656L52.8654 38.5668C52.2872 39.4848 51.461 40.2206 50.4824 40.689L51.7775 43.395ZM55.4039 40.1656L57.9423 41.7644C59.1239 39.8884 59.7506 37.7163 59.75 35.4992L56.75 35.5L53.75 35.5008C53.7503 36.5858 53.4436 37.6487 52.8654 38.5668L55.4039 40.1656ZM56.75 35.5H59.75V33H56.75H53.75V35.5H56.75ZM56.75 33V30H39.25V33V36H56.75V33Z" fill="#675F57" mask="url(#path-2-inside-1_141_65)"/>
</svg>
