<svg width="80" height="80" viewBox="0 0 80 80" fill="none" xmlns="http://www.w3.org/2000/svg">
<path d="M0 40C0 17.9086 17.9086 0 40 0C62.0914 0 80 17.9086 80 40C80 62.0914 62.0914 80 40 80C17.9086 80 0 62.0914 0 40Z" fill="#E8DDD0"/>
<path d="M54.8499 38.5332C54.8499 46.6832 48.9333 54.3165 40.8499 56.5498C40.2999 56.6998 39.6999 56.6998 39.1499 56.5498C31.0666 54.3165 25.1499 46.6832 25.1499 38.5332V31.2165C25.1499 29.8498 26.1833 28.2998 27.4666 27.7832L36.7499 23.9832C38.8332 23.1332 41.1832 23.1332 43.2666 23.9832L52.5499 27.7832C53.8166 28.2998 54.8666 29.8498 54.8666 31.2165L54.8499 38.5332Z" stroke="#5B7B5A" stroke-width="3" stroke-linecap="round" stroke-linejoin="round"/>
<path d="M40.0001 40.8332C41.841 40.8332 43.3334 39.3408 43.3334 37.4998C43.3334 35.6589 41.841 34.1665 40.0001 34.1665C38.1591 34.1665 36.6667 35.6589 36.6667 37.4998C36.6667 39.3408 38.1591 40.8332 40.0001 40.8332Z" stroke="#5B7B5A" stroke-width="3" stroke-miterlimit="10" stroke-linecap="round" stroke-linejoin="round"/>
<path d="M40 40.833V45.833" stroke="#5B7B5A" stroke-width="3" stroke-miterlimit="10" stroke-linecap="round" stroke-linejoin="round"/>
</svg>
