<svg width="96" height="96" viewBox="0 0 96 96" fill="none" xmlns="http://www.w3.org/2000/svg">
<path d="M48 0.5C74.2335 0.5 95.5 21.7665 95.5 48C95.5 74.2335 74.2335 95.5 48 95.5C21.7665 95.5 0.5 74.2335 0.5 48C0.5 21.7665 21.7665 0.5 48 0.5Z" stroke="#675F57"/>
<path d="M48.2668 46.1168C48.1001 46.1002 47.9001 46.1002 47.7168 46.1168C43.7501 45.9835 40.6001 42.7335 40.6001 38.7335C40.6001 34.6502 43.9001 31.3335 48.0001 31.3335C52.0834 31.3335 55.4001 34.6502 55.4001 38.7335C55.3834 42.7335 52.2334 45.9835 48.2668 46.1168Z" stroke="#675F57" stroke-width="3" stroke-linecap="round" stroke-linejoin="round"/>
<path d="M39.9334 52.2665C35.9001 54.9665 35.9001 59.3665 39.9334 62.0498C44.5168 65.1165 52.0334 65.1165 56.6168 62.0498C60.6501 59.3498 60.6501 54.9498 56.6168 52.2665C52.0501 49.2165 44.5334 49.2165 39.9334 52.2665Z" stroke="#675F57" stroke-width="3" stroke-linecap="round" stroke-linejoin="round"/>
</svg>
