<svg width="80" height="80" viewBox="0 0 80 80" fill="none" xmlns="http://www.w3.org/2000/svg">
<path d="M0 40C0 17.9086 17.9086 0 40 0C62.0914 0 80 17.9086 80 40C80 62.0914 62.0914 80 40 80C17.9086 80 0 62.0914 0 40Z" fill="#E8DDD0"/>
<path d="M56.3349 36.6666C57.0961 40.4021 56.5536 44.2857 54.798 47.6696C53.0424 51.0536 50.1797 53.7334 46.6874 55.2622C43.1951 56.791 39.2843 57.0763 35.6071 56.0706C31.9299 55.0649 28.7086 52.829 26.4804 49.7357C24.2522 46.6424 23.1518 42.8787 23.3627 39.0723C23.5736 35.2659 25.0831 31.6468 27.6393 28.8186C30.1956 25.9904 33.6442 24.124 37.41 23.5307C41.1758 22.9374 45.0312 23.6531 48.3333 25.5583" stroke="#5B7B5A" stroke-width="3" stroke-linecap="round" stroke-linejoin="round"/>
<path d="M35 38.3332L40 43.3332L56.6667 26.6665" stroke="#5B7B5A" stroke-width="3" stroke-linecap="round" stroke-linejoin="round"/>
</svg>
