<svg width="136" height="136" viewBox="0 0 136 136" fill="none" xmlns="http://www.w3.org/2000/svg">
<rect x="1" y="1" width="134" height="134" rx="67" stroke="#2D2D2D" stroke-width="2"/>
<path d="M60.6503 79.6398L87.0563 53.2368C87.3483 52.9448 87.6923 52.7888 88.0883 52.7688C88.4843 52.7488 88.8473 52.9048 89.1773 53.2368C89.5073 53.5688 89.6733 53.9258 89.6753 54.3078C89.6773 54.6898 89.5123 55.0458 89.1803 55.3758L62.3483 82.2258C61.8623 82.7118 61.2963 82.9548 60.6503 82.9548C60.0043 82.9548 59.4383 82.7118 58.9523 82.2258L46.8023 70.0758C46.5103 69.7838 46.3583 69.4368 46.3463 69.0348C46.3343 68.6328 46.4923 68.2668 46.8203 67.9368C47.1483 67.6068 47.5053 67.4418 47.8913 67.4418C48.2773 67.4418 48.6343 67.6068 48.9623 67.9368L60.6503 79.6398Z" fill="#2D2D2D"/>
</svg>
